<svg width="40" height="41" viewBox="0 0 40 41" fill="none" xmlns="http://www.w3.org/2000/svg">
<rect y="0.708008" width="40" height="40" rx="16" fill="#F6392D"/>
<path d="M20 10.458C18.0716 10.458 16.1866 11.0298 14.5832 12.1012C12.9798 13.1725 11.7301 14.6953 10.9922 16.4768C10.2542 18.2584 10.0611 20.2188 10.4373 22.1101C10.8136 24.0015 11.7422 25.7387 13.1057 27.1023C14.4693 28.4659 16.2066 29.3945 18.0979 29.7707C19.9892 30.1469 21.9496 29.9538 23.7312 29.2158C25.5127 28.4779 27.0355 27.2282 28.1068 25.6248C29.1782 24.0214 29.75 22.1364 29.75 20.208C29.747 17.6231 28.7188 15.1448 26.891 13.317C25.0632 11.4892 22.5849 10.461 20 10.458ZM23.5303 22.6777C23.6 22.7473 23.6554 22.83 23.6932 22.921C23.731 23.0121 23.7504 23.1096 23.7505 23.2082C23.7505 23.3067 23.7312 23.4043 23.6935 23.4954C23.6558 23.5864 23.6005 23.6692 23.5308 23.7388C23.4612 23.8085 23.3784 23.8638 23.2874 23.9015C23.1963 23.9392 23.0987 23.9585 23.0002 23.9585C22.9016 23.9584 22.8041 23.939 22.713 23.9012C22.622 23.8634 22.5393 23.808 22.4697 23.7383L20 21.2686L17.5303 23.7383C17.3896 23.8787 17.1989 23.9575 17.0002 23.9574C16.8014 23.9573 16.6108 23.8783 16.4703 23.7377C16.3298 23.5972 16.2508 23.4066 16.2506 23.2078C16.2505 23.0091 16.3293 22.8184 16.4697 22.6777L18.9395 20.208L16.4697 17.7383C16.3293 17.5976 16.2505 17.4069 16.2506 17.2082C16.2508 17.0094 16.3298 16.8188 16.4703 16.6783C16.6108 16.5378 16.8014 16.4588 17.0002 16.4587C17.1989 16.4585 17.3896 16.5373 17.5303 16.6777L20 19.1475L22.4697 16.6777C22.6104 16.5373 22.8011 16.4585 22.9998 16.4587C23.1986 16.4588 23.3892 16.5378 23.5297 16.6783C23.6703 16.8188 23.7493 17.0094 23.7494 17.2082C23.7495 17.4069 23.6707 17.5976 23.5303 17.7383L21.0606 20.208L23.5303 22.6777Z" fill="white" fill-opacity="0.9"/>
</svg>
