<svg width="40" height="41" viewBox="0 0 40 41" fill="none" xmlns="http://www.w3.org/2000/svg">
<rect y="0.708008" width="40" height="40" rx="16" fill="#4DB84E"/>
<path d="M20 11.458C18.0716 11.458 16.1866 12.0298 14.5832 13.1012C12.9798 14.1725 11.7301 15.6953 10.9922 17.4768C10.2542 19.2584 10.0611 21.2188 10.4373 23.1101C10.8136 25.0015 11.7422 26.7387 13.1057 28.1023C14.4693 29.4659 16.2066 30.3945 18.0979 30.7707C19.9892 31.1469 21.9496 30.9538 23.7312 30.2158C25.5127 29.4779 27.0355 28.2282 28.1068 26.6248C29.1782 25.0214 29.75 23.1364 29.75 21.208C29.747 18.6231 28.7188 16.1448 26.891 14.317C25.0632 12.4892 22.5849 11.461 20 11.458ZM24.6436 19.5007L19.1431 24.7507C19.0032 24.8838 18.8176 24.958 18.6245 24.958C18.4315 24.958 18.2458 24.8838 18.106 24.7507L15.3564 22.1257C15.2128 21.9881 15.1296 21.7991 15.1252 21.6003C15.1208 21.4014 15.1956 21.2089 15.333 21.0651C15.4704 20.9213 15.6593 20.8379 15.8581 20.8332C16.057 20.8286 16.2496 20.9031 16.3936 21.0403L18.6245 23.1709L23.6064 18.4153C23.7504 18.2781 23.943 18.2036 24.1419 18.2082C24.3407 18.2129 24.5296 18.2963 24.667 18.4401C24.8045 18.5839 24.8792 18.7764 24.8748 18.9753C24.8704 19.1741 24.7872 19.3631 24.6436 19.5007Z" fill="white" fill-opacity="0.9"/>
</svg>
