<svg width="40" height="41" viewBox="0 0 40 41" fill="none" xmlns="http://www.w3.org/2000/svg">
<rect y="0.708008" width="40" height="40" rx="16" fill="#F9A72A"/>
<path d="M30.1949 25.8301L21.9479 11.5801C21.75 11.2388 21.466 10.9555 21.1242 10.7586C20.7824 10.5617 20.3948 10.458 20.0003 10.458C19.6059 10.458 19.2183 10.5617 18.8765 10.7586C18.5347 10.9555 18.2507 11.2388 18.0528 11.5801V11.5808L9.80577 25.8301C9.60776 26.172 9.50331 26.5601 9.50293 26.9553C9.50255 27.3504 9.60625 27.7387 9.80359 28.081C10.0009 28.4234 10.285 28.7077 10.6271 28.9054C10.9692 29.1031 11.3574 29.2072 11.7525 29.2073H28.2481C28.6433 29.2072 29.0315 29.1031 29.3736 28.9054C29.7157 28.7077 29.9998 28.4234 30.1971 28.081C30.3944 27.7387 30.4981 27.3504 30.4978 26.9553C30.4974 26.5601 30.3929 26.172 30.1949 25.8301ZM19.2496 17.208C19.2496 17.0091 19.3286 16.8183 19.4693 16.6777C19.6099 16.537 19.8007 16.458 19.9996 16.458C20.1985 16.458 20.3893 16.537 20.5299 16.6777C20.6706 16.8183 20.7496 17.0091 20.7496 17.208V21.708C20.7496 21.9069 20.6706 22.0977 20.5299 22.2383C20.3893 22.379 20.1985 22.458 19.9996 22.458C19.8007 22.458 19.6099 22.379 19.4693 22.2383C19.3286 22.0977 19.2496 21.9069 19.2496 21.708V17.208ZM20.0002 26.2083C19.7777 26.2083 19.5602 26.1423 19.3751 26.0187C19.1901 25.8951 19.0459 25.7194 18.9608 25.5138C18.8756 25.3082 18.8534 25.082 18.8968 24.8638C18.9402 24.6456 19.0473 24.4451 19.2047 24.2878C19.362 24.1304 19.5625 24.0233 19.7807 23.9799C19.9989 23.9365 20.2251 23.9588 20.4307 24.0439C20.6362 24.1291 20.8119 24.2733 20.9356 24.4583C21.0592 24.6433 21.1252 24.8608 21.1252 25.0833C21.1251 25.3816 21.0066 25.6678 20.7956 25.8788C20.5847 26.0897 20.2985 26.2083 20.0002 26.2083Z" fill="white" fill-opacity="0.9"/>
</svg>
